<svg width="632" height="292" viewBox="0 0 632 292" fill="none" xmlns="http://www.w3.org/2000/svg">
<g opacity="0.15">
<rect y="261" width="80" height="16" rx="2" fill="#01004D"/>
<rect x="414" y="209" width="40" height="16" rx="2" fill="#01004D"/>
<rect x="512" width="40" height="16" rx="2" fill="#01004D"/>
<path fill-rule="evenodd" clip-rule="evenodd" d="M117 218C115.895 218 115 218.895 115 220V232C115 233.105 115.895 234 117 234H147V254C147 255.105 147.895 256 149 256H161C162.105 256 163 255.105 163 254V232V220C163 218.895 162.105 218 161 218H149H117Z" fill="#01004D"/>
<rect x="189" y="216" width="40" height="40" rx="2" fill="#01004D"/>
<rect x="518" y="209" width="40" height="40" rx="2" fill="#01004D"/>
<path fill-rule="evenodd" clip-rule="evenodd" d="M283 252C281.895 252 281 252.895 281 254V266V278V290C281 291.105 281.895 292 283 292H295C296.105 292 297 291.105 297 290V280H320C321.105 280 322 279.105 322 278V266C322 264.895 321.105 264 320 264H297V254C297 252.895 296.105 252 295 252H283Z" fill="#01004D"/>
<rect x="486" y="209" width="16" height="40" rx="2" fill="#01004D"/>
<rect x="394" y="264" width="16" height="16" rx="2" fill="#01004D"/>
<rect x="418" y="264" width="16" height="16" rx="2" fill="#01004D"/>
<rect x="579" y="132" width="16" height="40" rx="2" fill="#01004D"/>
<rect x="611" y="108" width="16" height="88" rx="2" fill="#01004D"/>
<path fill-rule="evenodd" clip-rule="evenodd" d="M524 93C522.895 93 522 93.8954 522 95V107V131C522 132.105 522.895 133 524 133H536C537.105 133 538 132.105 538 131V109H560C561.105 109 562 108.105 562 107V95C562 93.8954 561.105 93 560 93H536H524Z" fill="#01004D"/>
<path fill-rule="evenodd" clip-rule="evenodd" d="M340 240C338.895 240 338 240.895 338 242V266V278C338 279.105 338.895 280 340 280H352H376C377.105 280 378 279.105 378 278V266C378 264.895 377.105 264 376 264H354V242C354 240.895 353.105 240 352 240H340Z" fill="#01004D"/>
<path fill-rule="evenodd" clip-rule="evenodd" d="M618 25C616.895 25 616 25.8954 616 27V37H594C592.895 37 592 37.8954 592 39V51C592 52.1046 592.895 53 594 53H616V63C616 64.1046 616.895 65 618 65H630C631.105 65 632 64.1046 632 63V51V39V27C632 25.8954 631.105 25 630 25H618Z" fill="#01004D"/>
</g>
</svg>
