<svg width="97" height="16" viewBox="0 0 97 16" fill="none" xmlns="http://www.w3.org/2000/svg">
<path d="M1 7C0.447715 7 4.82823e-08 7.44772 0 8C-4.82823e-08 8.55228 0.447715 9 1 9L1 7ZM96.7071 8.70712C97.0976 8.31659 97.0976 7.68343 96.7071 7.2929L90.3431 0.92894C89.9526 0.538416 89.3195 0.538416 88.9289 0.92894C88.5384 1.31946 88.5384 1.95263 88.9289 2.34315L94.5858 8.00001L88.9289 13.6569C88.5384 14.0474 88.5384 14.6806 88.9289 15.0711C89.3195 15.4616 89.9526 15.4616 90.3431 15.0711L96.7071 8.70712ZM1 9L96 9.00001L96 7.00001L1 7L1 9Z" fill="#0400FF"/>
</svg>
